<?xml version="1.0" standalone="no"?>
<!DOCTYPE svg PUBLIC "-//W3C//DTD SVG 20010904//EN"
 "http://www.w3.org/TR/2001/REC-SVG-20010904/DTD/svg10.dtd">
<svg version="1.0" xmlns="http://www.w3.org/2000/svg"
 width="1200.000000pt" height="1200.000000pt" viewBox="0 0 1200.000000 1200.000000"
 preserveAspectRatio="xMidYMid meet">
<metadata>
Created by potrace 1.14, written by Peter Selinger 2001-2017
</metadata>
<g transform="translate(0.000000,1200.000000) scale(0.100000,-0.100000)"
fill="#000000" stroke="none">
<path d="M3039 10233 c-1 -23 -1 -8466 0 -8475 1 -5 1333 -8 2961 -8 2361 0
2960 3 2961 13 1 16 1 8447 0 8470 -1 16 -149 17 -2961 17 -2812 0 -2960 -1
-2961 -17z m5794 -4233 l0 -4115 -2833 0 -2833 0 -1 4105 c-1 2258 0 4111 2
4118 3 10 575 12 2835 10 l2830 -3 0 -4115z"/>
<path d="M4583 8638 c-15 -4 -35 -18 -45 -30 -16 -22 -18 -92 -18 -1151 l0
-1128 25 -24 c13 -14 34 -25 47 -26 141 -6 2810 -2 2831 4 57 18 54 -31 55
1162 0 605 -2 1114 -5 1132 -3 20 -15 39 -31 49 -24 16 -124 17 -1429 18 -772
1 -1416 -2 -1430 -6z m2735 -147 c9 -1 12 -37 12 -146 l0 -145 -127 0 c-112
-1 -2247 0 -2455 0 l-78 0 0 144 c0 87 4 146 10 148 8 2 2600 2 2638 -1z m12
-1254 l0 -813 -1330 0 -1330 1 0 812 0 813 1330 0 1330 0 0 -813z"/>
<path d="M4794 8397 c-57 -31 -39 -107 25 -107 34 0 54 21 54 55 0 45 -42 72
-79 52z"/>
<path d="M5017 8398 c-35 -12 -45 -49 -23 -83 36 -55 125 -10 98 50 -15 33
-41 44 -75 33z"/>
<path d="M5236 8398 c-29 -16 -39 -57 -21 -84 29 -44 106 -21 105 32 -1 41
-50 71 -84 52z"/>
<path d="M6221 7742 c-18 -16 -110 -168 -171 -284 -14 -27 -28 -48 -32 -48 -5
0 -8 -5 -8 -11 0 -7 -36 -73 -79 -148 -43 -75 -89 -154 -100 -176 -12 -22 -26
-47 -31 -55 -41 -67 -90 -151 -90 -155 0 -3 -11 -23 -25 -44 -34 -55 -26 -90
27 -117 48 -25 68 -12 121 75 26 43 47 84 47 89 0 6 3 12 8 14 6 3 27 39 71
123 9 17 19 32 24 33 4 2 7 8 7 13 0 5 20 42 44 82 23 39 61 103 82 142 21 38
44 78 49 87 6 9 20 34 31 55 12 21 30 54 42 74 11 20 26 47 34 60 7 13 15 26
18 29 20 20 51 101 45 119 -14 45 -82 70 -114 43z"/>
<path d="M5184 7473 c-253 -253 -251 -250 -171 -331 25 -26 52 -54 60 -62 8
-8 25 -25 38 -36 13 -12 48 -47 77 -77 28 -30 52 -54 52 -53 0 1 37 -35 83
-81 56 -56 91 -83 106 -83 28 0 81 54 81 83 0 14 -62 83 -180 202 -99 99 -180
184 -180 188 0 4 76 83 169 176 159 158 191 195 191 220 0 5 -12 23 -26 40
-50 60 -59 55 -300 -186z"/>
<path d="M6520 7660 c-19 -21 -26 -37 -23 -54 3 -15 75 -95 184 -204 l179
-180 -173 -174 c-96 -95 -179 -183 -186 -195 -13 -26 -5 -50 27 -80 27 -25 44
-28 72 -13 10 6 114 105 229 222 178 178 211 216 211 240 0 25 -34 63 -218
249 -242 242 -249 246 -302 189z"/>
<path d="M5850 5353 c-61 -21 -106 -58 -138 -112 -24 -40 -27 -57 -27 -131 0
-63 5 -94 18 -118 52 -96 137 -144 253 -143 127 1 205 38 259 126 26 41 30 59
32 124 2 92 -27 164 -85 209 -75 60 -214 80 -312 45z"/>
<path d="M6585 5247 c-2 -7 -3 -486 -2 -1066 l2 -1053 230 0 c127 1 242 1 256
1 l25 1 0 165 c-1 91 2 177 7 192 4 16 40 63 81 106 l73 78 35 -63 c49 -88 79
-141 175 -312 45 -81 83 -152 83 -157 0 -5 39 -9 88 -10 123 -1 443 -1 469 0
20 1 12 16 -67 139 -49 75 -108 166 -131 202 -69 109 -109 172 -226 352 -61
95 -114 180 -118 188 -5 14 75 111 479 583 22 27 42 52 44 56 2 5 -123 9 -277
9 l-279 0 -184 -232 c-102 -127 -195 -246 -208 -263 -13 -18 -29 -33 -34 -33
-8 0 -11 172 -11 562 l0 563 -253 2 c-187 1 -254 -2 -257 -10z"/>
<path d="M3900 4654 c0 -4 2 -12 108 -334 44 -135 149 -454 232 -710 84 -256
156 -469 160 -474 8 -8 597 -13 604 -5 2 2 90 279 196 614 260 825 270 857
280 883 7 16 6 24 -3 27 -6 2 -120 3 -252 2 l-240 -2 -52 -210 c-29 -115 -55
-219 -57 -230 -2 -11 -25 -103 -49 -205 -25 -102 -60 -248 -77 -325 -42 -185
-41 -181 -50 -164 -4 8 -11 32 -15 54 -5 22 -10 45 -11 50 -2 6 -6 24 -9 40
-13 64 -71 305 -154 640 l-87 350 -262 1 c-144 1 -262 0 -262 -2z"/>
<path d="M5706 4653 c-3 -4 -6 -349 -6 -767 l1 -761 247 2 c136 1 255 2 265 2
16 1 17 44 17 764 l0 764 -259 1 c-143 0 -262 -2 -265 -5z"/>
</g>
</svg>
